:SAMPLES-PER-SECOND 30
:FULLY-SPECIFIED
:DEGREES
135
root  -44.7821 39.7949 -32.8757 -1.57448 46.1685 -0.942612
RightUpLeg  -24.8084 -3.46537 1.24965
RightLeg  16.6982 1.57339 0.555302
RightFoot  -2.69155 -0.542231 6.912
RightToes  0.00048216 0.542163 -0.142577
Spine  32.9745 -5.36892 -6.66623
Spine1  9.47309 -11.3039 12.6819
HEad  -15.885 26.0375 -13.0466
LeftShoulder1  8.03977 -19.4384 -28.9118
LeftArm  33.2095 -68.3213 -67.0714
LeftForeArm  -12.9151 -24.6598 -5.90851
LeftHand  -0.25398 0.0180481 5.50724
RightShoulder  4.59191 10.3066 27.2161
RightArm  -30.5637 9.77638 18.3694
RightForeArm  -33.4818 74.2234 52.0127
RightHand  -2.03532 2.58451 -29.3204
LeftUpLeg  0.705401 3.57096 -9.57035
LeftLeg  9.1667 29.4754 -3.99662
LeftFoot  -16.3945 0.498323 9.03805
LeftToes  1.06244e-005 4.65854e-005 -8.18505e-006
136
root  -43.5829 39.58 -32.6219 -1.60359 48.145 -0.785004
RightUpLeg  -24.8681 -5.46537 3.68704
RightLeg  11.3404 0.623486 1.94847
RightFoot  -1.89765 -0.65123 7.7131
RightToes  0.00048216 0.542163 -0.142577
Spine  31.9945 -5.777 -6.9281
Spine1  9.45904 -11.9321 13.3333
HEad  -15.0918 26.0341 -13.0333
LeftShoulder1  8.06091 -19.3107 -29.2086
LeftArm  33.8352 -68.1729 -67.5933
LeftForeArm  -13.08 -24.7252 -5.93115
LeftHand  -0.25398 0.0180481 5.50724
RightShoulder  4.51102 10.0114 27.3481
RightArm  -30.1205 8.46868 18.2681
RightForeArm  -26.9264 75.4583 59.0379
RightHand  -2.31728 3.34957 -30.395
LeftUpLeg  3.22607 2.6644 -10.8748
LeftLeg  8.18819 28.8489 -4.35278
LeftFoot  -17.6348 0.616455 9.25057
LeftToes  1.06244e-005 4.65854e-005 -8.18505e-006
137
root  -42.299 39.2895 -32.3334 -1.78839 49.9749 -0.681793
RightUpLeg  -24.7921 -4.20766 4.21056
RightLeg  7.94273 -3.85025 3.50586
RightFoot  -1.41152 -0.771157 8.76385
RightToes  0.00048216 0.542163 -0.142577
Spine  30.8607 -6.12048 -7.28496
Spine1  9.71512 -12.5369 13.9846
HEad  -14.2582 26.098 -12.9369
LeftShoulder1  8.09977 -19.171 -29.6068
LeftArm  34.8881 -68.1167 -68.1899
LeftForeArm  -13.7079 -24.5528 -5.92067
LeftHand  -0.25398 0.0180481 5.50724
RightShoulder  4.4174 9.7634 27.2636
RightArm  -29.7212 7.33529 18.3598
RightForeArm  -20.8047 76.2854 65.6396
RightHand  -3.05812 5.47161 -32.1901
LeftUpLeg  5.58436 2.30817 -12.1418
LeftLeg  8.25083 28.1155 -4.13118
LeftFoot  -19.0976 0.786338 9.868
LeftToes  1.06244e-005 4.65854e-005 -8.18505e-006
138
root  -40.9237 38.9589 -32.0126 -2.26437 51.6726 -0.524826
RightUpLeg  -24.3698 -3.57529 4.91135
RightLeg  7.28372 -5.00964 4.01384
RightFoot  -1.72039 -0.856531 9.96489
RightToes  0.00048216 0.542163 -0.142577
Spine  29.8249 -6.31981 -7.84052
Spine1  10.1822 -13.1367 14.7949
HEad  -13.2957 26.1675 -12.6742
LeftShoulder1  8.15897 -19.1612 -29.8883
LeftArm  35.5799 -67.9306 -68.4803
LeftForeArm  -14.2828 -24.3899 -5.90982
LeftHand  -0.25398 0.0180481 5.50724
RightShoulder  4.27939 9.48452 26.9048
RightArm  -29.246 6.22471 18.7804
RightForeArm  -14.932 76.8608 72.2239
RightHand  -4.06988 8.20411 -34.1779
LeftUpLeg  8.21335 2.52331 -13.2449
LeftLeg  8.95568 27.3799 -3.76394
LeftFoot  -20.4327 0.953068 10.4142
LeftToes  1.06244e-005 4.65854e-005 -8.18505e-006
139
root  -39.4532 38.6794 -31.6804 -3.37067 53.5299 -1.05914
RightUpLeg  -23.8924 -3.86394 6.32025
RightLeg  9.15796 -2.91293 3.37722
RightFoot  -0.769775 -0.709814 7.7339
RightToes  0.00048216 0.542163 -0.142577
Spine  28.8957 -6.78312 -7.55406
Spine1  10.6958 -13.8234 15.3192
HEad  -12.2445 25.9672 -12.2998
LeftShoulder1  8.20459 -19.2112 -30.011
LeftArm  36.0979 -67.4768 -68.7449
LeftForeArm  -14.5104 -24.3394 -5.90868
LeftHand  -0.25398 0.0180481 5.50724
RightShoulder  4.14361 9.13778 26.7299
RightArm  -28.5671 4.76797 19.0732
RightForeArm  -7.37538 77.2938 80.3751
RightHand  -4.64615 9.63534 -35.2325
LeftUpLeg  11.0811 3.91364 -13.4856
LeftLeg  9.93652 25.2492 -3.32558
LeftFoot  -21.0228 1.00043 10.2892
LeftToes  1.06244e-005 4.65854e-005 -8.18505e-006
140
root  -37.8658 38.4852 -31.3733 -5.34053 55.2887 -2.88962
RightUpLeg  -24.0313 -5.00754 8.4228
RightLeg  13.0531 0.225069 2.16917
RightFoot  2.5906 -0.163114 1.58518
RightToes  0.00048216 0.542163 -0.142577
Spine  27.9829 -7.66216 -5.61415
Spine1  11.0491 -14.3598 15.1336
HEad  -11.4843 25.3696 -12.1492
LeftShoulder1  8.26099 -19.2052 -30.2728
LeftArm  36.9595 -66.7545 -69.4587
LeftForeArm  -14.3378 -24.4427 -5.92438
LeftHand  -0.25398 0.0180481 5.50724
RightShoulder  4.05183 8.80284 26.8814
RightArm  -27.8604 2.77432 18.8647
RightForeArm  2.21649 77.4658 89.9273
RightHand  -4.60349 9.47893 -35.2593
LeftUpLeg  13.6686 8.60104 -11.9153
LeftLeg  11.7491 19.4957 -2.3467
LeftFoot  -20.9527 0.916279 9.39981
LeftToes  1.06244e-005 4.65854e-005 -8.18505e-006
141
root  -36.1783 38.3459 -31.1108 -7.4814 56.2516 -5.15797
RightUpLeg  -24.8335 -6.06624 10.0449
RightLeg  18.3812 2.47772 1.03078
RightFoot  5.66978 0.614992 -3.93305
RightToes  0.00048216 0.542163 -0.142577
Spine  27.2309 -8.46518 -2.85426
Spine1  11.0194 -14.3867 14.574
HEad  -11.2917 24.5762 -12.3576
LeftShoulder1  8.40897 -19.1964 -30.946
LeftArm  37.8139 -65.8823 -70.1207
LeftForeArm  -13.8917 -24.7378 -5.97155
LeftHand  -0.25398 0.0180481 5.50724
RightShoulder  4.0312 8.64905 27.1366
RightArm  -27.3551 0.547146 18.2968
RightForeArm  11.3201 77.3411 98.0522
RightHand  -4.35371 8.83741 -34.875
LeftUpLeg  15.5663 19.0723 -7.92282
LeftLeg  15.5797 8.1728 -0.790208
LeftFoot  -20.0122 0.678665 7.41518
LeftToes  1.06244e-005 4.65854e-005 -8.18505e-006
142
root  -34.5066 38.3023 -30.8759 -8.67755 56.3118 -6.59676
RightUpLeg  -25.3046 -4.86134 9.57672
RightLeg  23.4133 1.54171 0.459159
RightFoot  5.46628 0.909219 -5.90421
RightToes  0.00048216 0.542163 -0.142577
Spine  26.9378 -8.70594 -0.736193
Spine1  10.6388 -13.9976 14.3926
HEad  -11.4094 23.8862 -12.6498
LeftShoulder1  8.65005 -19.2758 -31.8799
LeftArm  38.2097 -65.0622 -69.859
LeftForeArm  -13.5721 -25.074 -6.03415
LeftHand  -0.25398 0.0180481 5.50724
RightShoulder  4.12137 8.7984 27.4771
RightArm  -27.0115 -1.4458 17.8016
RightForeArm  17.8027 77.1387 102.953
RightHand  -4.20292 8.51224 -34.4815
LeftUpLeg  15.6915 28.6611 -3.5281
LeftLeg  22.4013 -2.49262 -0.375678
LeftFoot  -15.786 0.244985 3.22646
LeftToes  1.06244e-005 4.65854e-005 -8.18505e-006
